<?xml version="1.0" encoding="UTF-8"?> <svg xmlns="http://www.w3.org/2000/svg" id="Layer_1" data-name="Layer 1" viewBox="0 0 346.63 346.63"><defs></defs><defs><clipPath id="clip-path"><path fill="none" d="M0 0h346.63v346.63H0z"></path></clipPath></defs><g clip-path="url(#clip-path)"><path d="M173.31 5.87C81 5.87 5.87 81 5.87 173.31S81 340.76 173.31 340.76s167.45-75.12 167.45-167.45S265.64 5.87 173.31 5.87m0 340.76C77.75 346.63 0 268.88 0 173.31S77.75 0 173.31 0s173.32 77.75 173.32 173.31-77.75 173.32-173.32 173.32" class="cls-3"></path><path d="M172.82 53a120.37 120.37 0 10120.36 120.31A120.5 120.5 0 00172.82 53m0 245a124.59 124.59 0 11124.59-124.69A124.73 124.73 0 01172.82 297.9M179.49 23.3l-8.29-6.08a1.48 1.48 0 111.8-2.39l6.53 4.79 6.47-4.79a1.48 1.48 0 011.75 2.39z" class="cls-3"></path><path d="M187.1 44.91a1.51 1.51 0 01-.86-.27l-6.74-4.81-6.5 4.8a1.48 1.48 0 11-1.76-2.39l8.27-6.07 8.49 6.06a1.48 1.48 0 01-.86 2.68M165.66 38.5a1.46 1.46 0 01-.7-.18 1.48 1.48 0 01-.61-2l3.82-7.2-3.81-6.95a1.48 1.48 0 112.6-1.42l4.58 8.35-4.54 8.61a1.49 1.49 0 01-1.31.79M193.41 38.5a1.49 1.49 0 01-1.31-.79l-4.57-8.61 4.58-8.35a1.48 1.48 0 012.6 1.42l-3.81 7 3.82 7.2a1.48 1.48 0 01-.62 2 1.45 1.45 0 01-.69.18" class="cls-3"></path><path d="M178.01 21.21h2.96v16.3h-2.96z" class="cls-3"></path><path d="M169.86 27.88h19.63v2.96h-19.63zM209.61 48.71a14.34 14.34 0 01-10-3.93l2.17-2c2.48 2.66 7.58 3.58 10.32 2.59 1.7-.61 1.76-1.63 1.78-2 .1-1.71-2.4-3.53-4.81-5.28-3.19-2.31-6.8-4.94-6.8-8.84a4.85 4.85 0 012-4.2c3.57-2.51 10.64-.07 11.44.21l-1 2.79c-2.45-.87-7-1.81-8.73-.57a1.9 1.9 0 00-.75 1.77c0 2.39 2.83 4.45 5.58 6.44 3.06 2.23 6.23 4.53 6 7.85a5.12 5.12 0 01-3.73 4.59 10.39 10.39 0 01-3.54.57" class="cls-3"></path><path d="M217.23 32.58a1.48 1.48 0 01-1.42-1.06l-1.47-5 3.53-3.52a1.48 1.48 0 112.09 2.1l-2.28 2.28 1 3.27a1.49 1.49 0 01-1 1.85 1.52 1.52 0 01-.42.06M196.92 47.85a1.46 1.46 0 01-1.12-.51 1.48 1.48 0 01.15-2.09l2.78-2.4-.38-3.85a1.48 1.48 0 112.94-.29l.54 5.34-3.94 3.41a1.5 1.5 0 01-1 .36M222 46.93a1.5 1.5 0 01-1.28-.72 1.48 1.48 0 01.52-2l1.24-.72c2.09-1.19 4.08-2.31 5.22-4.29s1.3-5.86-.41-7a1.48 1.48 0 011.63-2.48c3.33 2.21 3 8.05 1.35 11-1.55 2.68-4.09 4.12-6.33 5.39l-1.19.69a1.46 1.46 0 01-.75.2M234.49 49.88a2.91 2.91 0 11-2.9-2.9 2.9 2.9 0 012.9 2.9M240.6 39a2.9 2.9 0 11-2.9-2.9 2.9 2.9 0 012.9 2.9M250.21 66.06c-3.63-1.37-8.54-3.81-9.33-9.29a12.49 12.49 0 016.85-13.15 12 12 0 0110.27-.14 9.36 9.36 0 015 6.52l-2.9.62a6.33 6.33 0 00-3.4-4.52 9 9 0 00-7.7.17 9.54 9.54 0 00-5.17 10.05c.45 3.07 2.67 5.14 7.44 6.93z" class="cls-3"></path><path d="M251 71a1.49 1.49 0 01-1.49-1.48v-5.8l5.39-2a1.48 1.48 0 011.05 2.77l-3.47 1.32v3.71A1.48 1.48 0 01251 71M260 56.05a1.52 1.52 0 01-.51-.09 1.48 1.48 0 01-.88-1.9l2-5.4 5.76-.07a1.53 1.53 0 011.49 1.47 1.48 1.48 0 01-1.46 1.5h-3.71l-1.28 3.48a1.48 1.48 0 01-1.39 1M273.76 58.25a11.65 11.65 0 00-8.14 3.82c-3.92 4.12-4.57 9.88-1.46 12.84s9 1.84 12.75-2.1c3.92-4.13 4.57-9.89 1.46-12.84a6.51 6.51 0 00-4.61-1.72m-5 21.34a9.5 9.5 0 01-6.66-2.53c-4.29-4.09-3.69-11.73 1.35-17a14.47 14.47 0 0110.29-4.75 9.46 9.46 0 016.66 2.54c4.29 4.08 3.68 11.72-1.36 17a14.46 14.46 0 01-10.28 4.74M287 100.72a1.54 1.54 0 01-.72-.18 1.5 1.5 0 01-.75-1.49l2.34-18.5-10 9-2-2.2 13-11.73a1.48 1.48 0 012.46 1.38L289 95.74l8.73-7.15 1.87 2.29-11.6 9.51a1.48 1.48 0 01-.94.33" class="cls-3"></path><path d="M295.79 79.48a1.53 1.53 0 01-.3 0l-5.93-1.23a1.47 1.47 0 01-1.17-1.31l-.62-6.42a1.48 1.48 0 113-.28l.51 5.33 4.86 1a1.48 1.48 0 01-.3 2.93M304.68 92.94a1.53 1.53 0 01-.3 0l-5.93-1.23a1.49 1.49 0 01-1.18-1.48l.12-6.54a1.49 1.49 0 011.48-1.46 1.48 1.48 0 011.45 1.51l-.06 5.26 4.74 1a1.48 1.48 0 01-.3 2.93M277.47 96.51a1.47 1.47 0 01-1.47-1.45l-.12-5.36-4.77-1.37a1.48 1.48 0 01.82-2.85l5.81 1.68a1.48 1.48 0 011.08 1.39L279 95a1.48 1.48 0 01-1.45 1.51zM285.91 107.14h-.1a1.49 1.49 0 01-1.38-1.58l.3-4.28-4.88-1.76a1.48 1.48 0 111-2.78l5.93 2.14a1.46 1.46 0 011 1.49l-.37 5.39a1.49 1.49 0 01-1.48 1.38M299.66 123.57a6.15 6.15 0 01-2.78-.72c-3.92-2-7.11-7.64-6.83-12.12l3 .19c-.23 3.63 2.61 8 5.2 9.29 1.61.81 2.4.15 2.66-.07 1.28-1.08.8-4.25.33-7.32-.62-4.08-1.32-8.71 1.63-11.35a5.46 5.46 0 015.2-1.54c4.46 1.17 7 8.4 7.3 9.23l-2.81 1c-.85-2.52-3-6.74-5.25-7.32-.27-.07-1.14-.3-2.46.89-1.76 1.57-1.21 5.19-.68 8.69.59 3.88 1.2 7.89-1.36 10a4.77 4.77 0 01-3.11 1.16" class="cls-3"></path><path d="M312.07 115.6a1.52 1.52 0 01-.74-.2 1.49 1.49 0 01-.54-2l2.6-4.48 5 .14a1.48 1.48 0 011.43 1.53 1.54 1.54 0 01-1.52 1.44l-3.22-.1-1.72 3a1.48 1.48 0 01-1.28.74M292.05 111.84l-5.18-.53a1.48 1.48 0 01-1.32-1.63 1.5 1.5 0 011.62-1.32l3.65.37 2.51-2.9a1.48 1.48 0 012.24 2zM320.82 143.55l-19.63-2.09a1.49 1.49 0 01-.87-2.55l15.06-14.44 2.05 2.14-12.76 12.24 16.46 1.76z" class="cls-3"></path><path d="M322.06 128.77a1.31 1.31 0 01-.44-.07l-5.78-1.81a1.49 1.49 0 01-1-1.59l.76-6.49a1.48 1.48 0 012.95.34l-.62 5.28 4.6 1.45a1.48 1.48 0 01-.44 2.89M325.05 148.38a1.46 1.46 0 01-1.06-.45l-4.59-4.7a1.47 1.47 0 010-2l4.39-4.85a1.48 1.48 0 112.19 2l-3.45 3.82 3.62 3.7a1.49 1.49 0 01-1.06 2.52M309.32 173.06L303 162a1.46 1.46 0 010-1.42 1.48 1.48 0 011.18-.79l20.49-1.85.27 3-18.21 1.65 5.16 9.11z" class="cls-3"></path><path d="M329.5 165a1.47 1.47 0 01-1.11-.49l-3.95-4.45a1.48 1.48 0 01-.26-1.57l2.35-5.43a1.48 1.48 0 012.72 1.17l-2 4.57 3.33 3.74a1.48 1.48 0 01-.13 2.09 1.46 1.46 0 01-1 .37M308.14 179.49a1.48 1.48 0 01-1.29-2.22l3-5.18a1.48 1.48 0 011.51-.73l8.15 1.23a1.48 1.48 0 01-.45 2.93l-7.14-1.08-2.46 4.3a1.47 1.47 0 01-1.28.75M307.33 199l-5.47-11.54a1.47 1.47 0 01.08-1.42 1.48 1.48 0 011.23-.7l20.57-.36.06 3-18.28.31 4.49 9.47z" class="cls-3"></path><path d="M328.15 192.51a1.51 1.51 0 01-1.18-.58l-3.62-4.72a1.48 1.48 0 01-.13-1.59l2.73-5.24a1.48 1.48 0 012.63 1.37l-2.3 4.41 3 4a1.48 1.48 0 01-1.17 2.38M305.8 205.37a1.47 1.47 0 01-.83-.25 1.49 1.49 0 01-.41-2.06l3.34-5a1.46 1.46 0 011.55-.61l8 1.82a1.48 1.48 0 11-.65 2.89l-7-1.6-2.8 4.15a1.46 1.46 0 01-1.22.66M314.23 228.54l-15-12.82a1.46 1.46 0 01-.46-1.52 1.47 1.47 0 011.18-1.07l20.59-3.41.49 2.93-17.45 2.89 12.59 10.75z" class="cls-3"></path><path d="M324.45 217.31a1.46 1.46 0 01-1.17-.57l-3.74-4.74a1.48 1.48 0 010-1.89l4.3-4.93A1.49 1.49 0 01326 205a1.48 1.48 0 01.14 2.09l-3.49 4 3 3.79a1.47 1.47 0 01-.25 2.08 1.43 1.43 0 01-.91.32M315.83 235.17a1.47 1.47 0 01-1.45-1.22l-1.14-6.48a1.48 1.48 0 011.12-1.69l6.36-1.52a1.48 1.48 0 11.69 2.88l-5 1.2.89 5.1a1.47 1.47 0 01-1.2 1.71 1.14 1.14 0 01-.26 0M281.1 263.86a2.9 2.9 0 11-2.9-2.9 2.9 2.9 0 012.9 2.9M233.93 300.66a2.9 2.9 0 11-2.89-2.9 2.89 2.89 0 012.89 2.9M238.25 312.88a2.9 2.9 0 11-2.9-2.9 2.9 2.9 0 012.9 2.9M90.72 284.48a2.9 2.9 0 11-2.9-2.9 2.9 2.9 0 012.9 2.9M55.9 245.35a2.9 2.9 0 11-2.9-2.9 2.9 2.9 0 012.9 2.9M49.23 250.16a2.9 2.9 0 11-2.9-2.9 2.9 2.9 0 012.9 2.9M84.42 294.36a2.9 2.9 0 11-2.9-2.9 2.9 2.9 0 012.9 2.9M289.86 270.53a2.9 2.9 0 11-2.9-2.9 2.9 2.9 0 012.9 2.9M296.08 234.7c-3.37 0-6 1.38-6.81 3.59-1.26 3.35 1.93 7.79 7 9.69a13.93 13.93 0 004.81.91c3.37 0 6-1.38 6.81-3.59 1.27-3.35-1.93-7.79-7-9.69a13.88 13.88 0 00-4.81-.91m5 17.15a16.73 16.73 0 01-5.85-1.1c-6.66-2.5-10.56-8.56-8.7-13.5 1.28-3.4 4.95-5.51 9.58-5.51a16.83 16.83 0 015.86 1.1c6.65 2.51 10.55 8.56 8.7 13.5-1.28 3.4-5 5.51-9.59 5.51" class="cls-3"></path><path d="M295.49 262.36c-3.1 0-6.08-1.47-8.65-4.25a20.87 20.87 0 01-1.38-1.7 10.2 10.2 0 00-2.45-2.56c-1.44-.89-3.08-.38-5 .21l-.58.18a1.48 1.48 0 01-.86-2.83l.56-.18c2.16-.66 4.84-1.51 7.42.1a12.33 12.33 0 013.24 3.29c.39.51.78 1 1.21 1.48 1.42 1.55 3.67 3.4 6.67 3.29a4.28 4.28 0 003.67-2 6.55 6.55 0 00.25-5.95 1.48 1.48 0 012.72-1.18 9.44 9.44 0 01-.47 8.72 7.22 7.22 0 01-6.08 3.37h-.29M266 272.87a6 6 0 00-4.41 1.72c-2.73 2.88-1.66 8.36 2.4 12.22a11.9 11.9 0 007.91 3.49 6 6 0 004.42-1.72 6.3 6.3 0 001.37-5.53 12.25 12.25 0 00-3.78-6.68 11.84 11.84 0 00-7.91-3.5m5.9 20.39a14.85 14.85 0 01-9.95-4.3c-5.24-5-6.37-12.35-2.51-16.41a8.92 8.92 0 016.56-2.64 14.86 14.86 0 0110 4.31 15.32 15.32 0 014.65 8.33 9.15 9.15 0 01-2.15 8.07 8.89 8.89 0 01-6.56 2.64" class="cls-3"></path><path d="M260.07 279.8h16.62v2.96h-16.62z" class="cls-3" transform="rotate(-38.11 268.37 281.28)"></path><path d="M258.56 279.56a1.73 1.73 0 01-.38-.05l-5.93-1.61a1.48 1.48 0 01-1-1.82 1.5 1.5 0 011.82-1l5.92 1.61a1.47 1.47 0 011 1.81 1.48 1.48 0 01-1.43 1.1M269.37 299.87h-.06a1.49 1.49 0 01-1.42-1.54l.24-6.18a1.57 1.57 0 011.54-1.42 1.49 1.49 0 011.43 1.54l-.25 6.17a1.49 1.49 0 01-1.48 1.43" class="cls-3"></path><path d="M247.38 288.47h2.96v18.3h-2.96z" class="cls-3" transform="rotate(-31.72 248.88 297.63)"></path><path d="M246.11 304.41h14.8v2.97h-14.8z" class="cls-3" transform="rotate(-31.26 253.54 305.9)"></path><path d="M244.56 291.56h-.07l-6.53-.32a1.48 1.48 0 01-1.41-1.55 1.46 1.46 0 011.55-1.41l5.31.26 1.13-4.69a1.5 1.5 0 011.79-1.09 1.48 1.48 0 011.09 1.79l-1.42 5.88a1.48 1.48 0 01-1.44 1.13M246.56 317.43h-.11a1.48 1.48 0 01-1.37-1.58l.4-5.3-4.66-1.25a1.48 1.48 0 01-1-1.81 1.5 1.5 0 011.81-1.05l5.85 1.56a1.49 1.49 0 011.1 1.54l-.49 6.53a1.49 1.49 0 01-1.48 1.37M265.6 305.32a1.28 1.28 0 01-.38-.05l-5.85-1.56a1.48 1.48 0 01-1.09-1.54l.48-6.52a1.48 1.48 0 113 .22l-.4 5.3 4.66 1.24a1.48 1.48 0 01-.38 2.91M213.24 324.93h-.33l.07-3a8.39 8.39 0 009-7.64 9.67 9.67 0 00-5.23-9.87c-2.59-1.29-5.35-.57-9.2 2.39l-1.81-2.35c3-2.3 7.53-5.07 12.32-2.69a12.63 12.63 0 016.85 12.94 11.41 11.41 0 01-11.67 10.19" class="cls-3"></path><path d="M205.47 312a1.55 1.55 0 01-.31 0 1.47 1.47 0 01-1.14-1.75l.77-3.66-2.93-2.05a1.48 1.48 0 011.69-2.43l4.55 3.17-1.18 5.58a1.49 1.49 0 01-1.45 1.18M211.47 329.34h-.3a1.48 1.48 0 01-1.16-1.75l.74-3.61-3-2.12a1.49 1.49 0 01-.35-2.07 1.47 1.47 0 012.06-.35l4.59 3.23-1.12 5.51a1.47 1.47 0 01-1.45 1.19" class="cls-3"></path><path d="M194.61 309.61h2.96v15.33h-2.96z" class="cls-3" transform="rotate(-10.67 196.18 317.37)"></path><path d="M194.86 311l-6.86-3.38a1.48 1.48 0 111.3-2.66l4.73 2.3 2.71-3.49a1.48 1.48 0 012.34 1.82zM194.06 330.85a1.48 1.48 0 01-1.12-2.46l4.29-4.87 6.79 2.89a1.48 1.48 0 01-1.16 2.72l-4.86-2.05-2.87 3.27a1.48 1.48 0 01-1.11.5M137.52 321.39l-1.65-14.7-11.05 10.43-2-2.16L136 302.5a1.48 1.48 0 012.49.91l2 17.65z" class="cls-3"></path><path d="M144.05 329a1.45 1.45 0 01-1.15-.55l-4.22-5.25-4.19 2.73a1.49 1.49 0 01-1.62-2.49l5.31-3.46a1.48 1.48 0 012 .32l5.07 6.29a1.49 1.49 0 01-.23 2.09 1.46 1.46 0 01-.93.32M126.15 324.07a1.5 1.5 0 01-1.4-1l-1.91-5.35-5.79 1.12a1.5 1.5 0 01-1.74-1.18 1.48 1.48 0 011.18-1.73l7-1.36a1.49 1.49 0 011.68 1l2.34 6.55a1.48 1.48 0 01-1.39 2" class="cls-3"></path><path d="M148.12 316.04h14.83V319h-14.83z" class="cls-3" transform="rotate(-87.1 155.53 317.52)"></path><path d="M155.91 310.85a1.48 1.48 0 01-1-.35l-7.41-6.3a1.48 1.48 0 111.92-2.25l6.62 5.62 6.14-3.44a1.48 1.48 0 111.45 2.58l-7 4a1.41 1.41 0 01-.72.19M160.84 332.22a1.51 1.51 0 01-1-.35l-5.11-4.27-5.27 3.17a1.48 1.48 0 01-1.53-2.54l6.18-3.71a1.48 1.48 0 011.71.14l5.92 4.94a1.48 1.48 0 01-.95 2.62M111.3 293.55c-3.77 0-7.31 3.25-8.42 7.73a10.87 10.87 0 00.64 7.35 7.09 7.09 0 004.64 4c4.18 1.05 8.71-2.44 10-7.54s-1.08-10.28-5.29-11.33a6.78 6.78 0 00-1.55-.19m-1.59 22.21a9.09 9.09 0 01-2.26-.28 10 10 0 01-6.6-5.56 13.87 13.87 0 01-.85-9.35c1.44-5.78 6.19-10 11.3-10a9.52 9.52 0 012.26.28c5.8 1.44 9.14 8.13 7.45 14.92-1.44 5.78-6.19 10-11.3 10" class="cls-3"></path><path d="M99.11 305.19c-3.16 0-7.66-.21-10-2.58a5.33 5.33 0 01-1.51-4c.1-3.85 3.47-6.22 5.48-7.63a14.12 14.12 0 012.25-1.22 7.87 7.87 0 002.36-1.44c1-1 .78-2.44.29-4.62l1.38-.61 1.44-.33c.55 2.43 1.22 5.36-1 7.63a10.44 10.44 0 01-3.24 2.05 12.62 12.62 0 00-1.8 1c-2.1 1.47-4.16 3.1-4.22 5.27a2.4 2.4 0 00.66 1.86c1.72 1.74 6.35 1.71 8.86 1.69h.76a1.49 1.49 0 010 3h-1.71M170.1 328l-2.71-1.21 8.52-19a1.54 1.54 0 011.4-.87 1.46 1.46 0 011.34.95l7.16 18.89-2.81 1.04-5.89-15.53z" class="cls-3"></path><path d="M180.6 333.57a1.48 1.48 0 01-1.17-2.39l3.95-5.06a1.47 1.47 0 012-.29l5.31 3.83a1.48 1.48 0 11-1.73 2.4l-4.15-3-3.04 3.94a1.48 1.48 0 01-1.17.57M174.8 334.19a1.51 1.51 0 01-1.09-.47l-4.48-4.79-3.74 3.07a1.5 1.5 0 01-2.09-.2 1.48 1.48 0 01.21-2.09l4.81-3.95a1.5 1.5 0 012 .13l5.44 5.81a1.48 1.48 0 01-1.08 2.49M73.31 296.16a1.47 1.47 0 01-1.46-1.24c-1-6-.89-9.61.29-10.79s9-9.63 9.09-9.71a1.47 1.47 0 011-.47c2.39-.2 8.13-.56 9.8.27a1.48 1.48 0 01-1.33 2.65c-.74-.3-4.44-.25-7.66 0-1.63 1.75-7.68 8.27-8.78 9.36-.27.64-.06 4.54.54 8.22a1.48 1.48 0 01-1.22 1.7 1 1 0 01-.24 0" class="cls-3"></path><path d="M72.26 287.65c-1.77 0-7.49-.34-10-4.7-1.91-3.33-.79-7.81 2.92-11.71s9.31-6.49 13.36-4.42a12.52 12.52 0 016.08 7.64 1.49 1.49 0 01-2.89.69 9.6 9.6 0 00-4.54-5.69c-2.35-1.21-6.69.48-9.87 3.82-2.17 2.28-4 5.63-2.49 8.2 2 3.44 7.71 3.21 7.76 3.21a1.45 1.45 0 011.57 1.39 1.48 1.48 0 01-1.39 1.56h-.52M59.4 251.37a11.85 11.85 0 00-8 3.71 12.28 12.28 0 00-3.58 6.79 6.25 6.25 0 001.53 5.49c2.71 2.69 8.48 1.67 12.26-2.12a12.39 12.39 0 003.59-6.8 6.27 6.27 0 00-1.57-5.44 5.85 5.85 0 00-4.23-1.59m-5.86 20.55a8.71 8.71 0 01-6.32-2.46 9.13 9.13 0 01-2.38-8 15.38 15.38 0 014.41-8.5 14.71 14.71 0 0110.15-4.6 8.73 8.73 0 016.32 2.46 9.16 9.16 0 012.37 8 15.27 15.27 0 01-4.42 8.47 14.67 14.67 0 01-10.13 4.59" class="cls-3"></path><path d="M55.3 251.3h2.96v16.62H55.3z" class="cls-3" transform="rotate(-37 56.36 258.92)"></path><path d="M60.21 251.35a1.52 1.52 0 01-.42-.06 1.47 1.47 0 01-1-1.84l1.74-5.88a1.48 1.48 0 012.84.84l-1.74 5.88a1.47 1.47 0 01-1.42 1.06M45.83 262.08h-.09l-6.17-.39a1.48 1.48 0 01-1.39-1.57 1.43 1.43 0 011.57-1.39l6.17.39a1.48 1.48 0 01-.09 3" class="cls-3"></path><path d="M32.57 233.42h18.3v2.96h-18.3z" class="cls-3" transform="rotate(-25.82 41.74 234.92)"></path><path d="M32.09 233.61h2.96v12.33h-2.96z" class="cls-3" transform="rotate(-25.06 33.55 239.75)"></path><path d="M57.5 237.27a1.46 1.46 0 01-.72-.19l-7.84-4.39a1.47 1.47 0 01-.76-1.4l.56-8.07a1.48 1.48 0 113 .21l-.5 7.13 7 3.94a1.48 1.48 0 01-.73 2.77M31.09 236.16a1.43 1.43 0 01-.29 0l-6.91-1.35a1.48 1.48 0 01-1.17-1.81 1.46 1.46 0 011.74-1.17l5.68 1.17 2.28-6a1.48 1.48 0 112.77 1l-2.72 7.17a1.48 1.48 0 01-1.38.95M33.81 252.4a1.71 1.71 0 01-.53-.1 1.48 1.48 0 01-.85-1.91l2.15-5.66a1.51 1.51 0 011.64-.93l6.44 1.2a1.48 1.48 0 01-.52 2.92l-5.23-.93-1.71 4.5a1.5 1.5 0 01-1.39 1M27.5 222.33a1.48 1.48 0 01-.26-2.94l20-3.58A1.5 1.5 0 0149 217a1.47 1.47 0 01-1.19 1.72l-20 3.58h-.26" class="cls-3"></path><path d="M24.91 229.87a1.23 1.23 0 01-.42-.07 1.47 1.47 0 01-1-1.83l1.77-6-5.9-3.37a1.48 1.48 0 011.47-2.6l6.91 4a1.49 1.49 0 01.69 1.71l-2.1 7.16a1.48 1.48 0 01-1.42 1.07M32.94 221.22a1.53 1.53 0 01-.71-.18c-3-1.64-7-4.84-8.37-8.41-1.05-2.85-.2-4.63.69-5.62 3.08-3.43 11.23-2.31 13.84-1.65a23 23 0 017.8 3.45 1.48 1.48 0 01.27 2.08 1.5 1.5 0 01-2.08.27 19.62 19.62 0 00-6.72-2.93c-3.47-.88-9.31-1-10.91.76-.19.21-.76.84-.11 2.61 1 2.61 4.3 5.37 7 6.84a1.48 1.48 0 01-.7 2.78M23.85 184.4a3.8 3.8 0 00-.93.11 2.55 2.55 0 00-1.86 1.43c-1.11 2.4.39 7 1.47 9.46l8.59-2.19c-.79-2.37-3.29-8.81-7.27-8.81m-2.15 14.23a1.47 1.47 0 01-1.32-.82c-.43-.86-4.13-8.52-2-13.11a5.48 5.48 0 013.84-3.07c7.23-1.77 10.85 7.85 11.79 10.84l3.26-.83a1.48 1.48 0 01.73 2.87l-15.92 4.07a1.64 1.64 0 01-.37 0" class="cls-3"></path><path d="M30 188.38a1.48 1.48 0 01-.93-2.63l7.9-6.42a1.48 1.48 0 011.87 2.3l-7.9 6.42a1.52 1.52 0 01-.94.33M42.94 200a1.46 1.46 0 01-1.13-.53l-4.7-5.55a1.49 1.49 0 010-1.91l4-4.7a1.48 1.48 0 112.27 1.91l-3.2 3.78 3.89 4.6a1.49 1.49 0 01-1.13 2.4" class="cls-3"></path><path d="M42.69 183.57a1.51 1.51 0 01-.58-.12L38 181.72a1.48 1.48 0 01-.85-1.77l1.36-4.7a1.48 1.48 0 012.85.82l-1 3.44 2.87 1.21a1.49 1.49 0 01-.58 2.85M19.73 206.78a2 2 0 01-.35 0 1.48 1.48 0 01-1.09-1.8l2-8.14a1.48 1.48 0 112.88.7l-2 8.14a1.47 1.47 0 01-1.43 1.14M30 157.56c-.45 0-.92 0-1.39.06a12.32 12.32 0 00-7.08 3 6.27 6.27 0 00-2.31 5.2c.38 3.88 5.19 6.75 10.81 6.17a12.34 12.34 0 007.09-3 6.26 6.26 0 002.31-5.2c-.35-3.56-4.4-6.24-9.43-6.24M28.64 175c-6.55 0-11.86-3.83-12.36-8.91a9.13 9.13 0 013.26-7.68 15.27 15.27 0 018.79-3.72c7.28-.73 13.52 3.32 14.06 8.83a9.16 9.16 0 01-3.27 7.68 15.31 15.31 0 01-8.79 3.72c-.57.05-1.14.08-1.69.08" class="cls-3"></path><path d="M21.61 163.09h16.62v2.96H21.61z" class="cls-3" transform="rotate(-87.2 29.91 164.57)"></path><path d="M38.89 160.23a1.45 1.45 0 01-1.14-.54 1.48 1.48 0 01.2-2.08l5.52-4.61a1.48 1.48 0 111.89 2.28l-5.53 4.57a1.45 1.45 0 01-.94.34M21.59 159.35a1.45 1.45 0 01-1-.4l-4.51-4.22a1.48 1.48 0 112-2.16l4.51 4.22a1.48 1.48 0 01-1 2.56M42.44 148.26h-.22l-18.89-2.86.44-2.93 16.8 2.53-1.93-9.53 2.91-.58 2.35 11.6a1.52 1.52 0 01-.38 1.32 1.51 1.51 0 01-1.08.46M46.27 127a1.42 1.42 0 01-.61-.13L30 119.72l1.21-2.72 14 6.39 1.23-6.08 2.91.59-1.61 7.9a1.47 1.47 0 01-.78 1 1.44 1.44 0 01-.67.16" class="cls-3"></path><path d="M19 150a1.48 1.48 0 01-1.11-2.46l3.7-4.21-3.7-5.6a1.48 1.48 0 012.48-1.63l4.32 6.54a1.5 1.5 0 01-.13 1.8l-4.44 5.06a1.5 1.5 0 01-1.12.5M39.85 136.16a1.5 1.5 0 01-.83-.26l-4.57-3.08a1.48 1.48 0 111.66-2.46l3.48 2.35 2.48-2.84a1.48 1.48 0 112.23 1.95l-3.3 3.83a1.49 1.49 0 01-1.12.51M24.3 124.06a1.48 1.48 0 01-.91-2.66l5.06-3.87-1.53-6.86a1.48 1.48 0 112.9-.64l1.72 7.78a1.47 1.47 0 01-.54 1.5l-5.8 4.44a1.47 1.47 0 01-.9.31M47.88 118.5a1.46 1.46 0 01-1.12-.51L43.3 114a1.48 1.48 0 112.23-2l2.62 3 3.74-2.4a1.48 1.48 0 011.6 2.5l-4.82 3.09a1.51 1.51 0 01-.79.23M44.93 92.82c-1.66 0-5.63.35-6.76 3.63a5.85 5.85 0 00.43 4.55 11.84 11.84 0 006.84 5.58 13.45 13.45 0 004.38.75c3.71 0 6.68-1.67 7.56-4.26a5.46 5.46 0 00-1-5.14 13.17 13.17 0 00-6.26-4.17 16.12 16.12 0 00-5.18-.91m4.89 17.45a16.55 16.55 0 01-5.34-.91 14.63 14.63 0 01-8.54-7.09 8.71 8.71 0 01-.57-6.78c1.21-3.53 4.78-5.63 9.56-5.63a19.49 19.49 0 016.14 1.06 16.09 16.09 0 017.66 5.2 8.34 8.34 0 011.45 7.85c-1.3 3.8-5.37 6.26-10.37 6.26" class="cls-3"></path><path d="M40.1 98.31h16.62v2.96H40.1z" class="cls-3" transform="rotate(-62.68 48.4 99.8)"></path><path d="M59.6 100.72a1.48 1.48 0 01-.26-2.94l6.17-1.11a1.48 1.48 0 01.49 2.92l-6.17 1.11a1.23 1.23 0 01-.27 0M45.16 91.71a1.48 1.48 0 01-1.47-1.27l-.86-6a1.48 1.48 0 112.93-.44l.87 6a1.48 1.48 0 01-1.26 1.67h-.21M65.53 95.54h-.24a1.48 1.48 0 01-1.22-1.7l.6-3.71-12.61-10-4.77 1.8a1.48 1.48 0 11-1-2.77l6.34-2.4 15.24 12.11-.87 5.42a1.47 1.47 0 01-1.46 1.25" class="cls-3"></path><path d="M52.2 79.36a1.49 1.49 0 01-1.49-1.48 15.13 15.13 0 01.93-5.49 7.84 7.84 0 0111.29-4 7.75 7.75 0 013.65 5 9.92 9.92 0 01.16 1.13 5.51 5.51 0 00.1.68 1.48 1.48 0 11-2.87.75 7.67 7.67 0 01-.17-1.11 6.1 6.1 0 00-.11-.78 4.76 4.76 0 00-2.24-3.11 5 5 0 00-4-.4 5.18 5.18 0 00-3 3 12.12 12.12 0 00-.7 4.37 1.48 1.48 0 01-1.48 1.48" class="cls-3"></path><path d="M67 90.6a1.48 1.48 0 01-.59-2.84c4.88-2.14 6.85-4.47 6.21-7.36a4.75 4.75 0 00-2.35-3.19 4.42 4.42 0 00-3.71-.21c-2.23.86-3.54 2.86-4.92 5l-.94 1.41a1.48 1.48 0 01-2.44-1.69c.31-.44.6-.89.9-1.34 1.58-2.41 3.21-4.91 6.32-6.12a7.34 7.34 0 016.2.33 7.66 7.66 0 013.84 5.15c1 4.39-1.69 8-7.91 10.72a1.44 1.44 0 01-.6.13M78.49 53.86a6.8 6.8 0 00-5 2 7 7 0 00-1.71 5.79 11.23 11.23 0 003.48 6.61c3.77 3.61 9.64 4.21 12.48 1.26a7 7 0 001.71-5.79A11.34 11.34 0 0086 57.09a11.08 11.08 0 00-7.49-3.23m4.28 20.58a14.06 14.06 0 01-9.55-4.06A14.24 14.24 0 0168.85 62a9.87 9.87 0 012.52-8.21 9.73 9.73 0 017.12-2.89A14.06 14.06 0 0188 55a14.29 14.29 0 014.37 8.39 9.85 9.85 0 01-2.52 8.21 9.67 9.67 0 01-7.11 2.89M100 59.3a1.47 1.47 0 01-1.27-.71l-9.97-16.38a1.48 1.48 0 01.5-2 1.5 1.5 0 012 .5l9.92 16.38a1.48 1.48 0 01-.5 2 1.5 1.5 0 01-.76.21M112.63 53a1.41 1.41 0 01-.6-.13l-9.58-4.27a1.48 1.48 0 011.21-2.71l9.58 4.27a1.48 1.48 0 01-.61 2.84" class="cls-3"></path><path d="M96.6 52.73a1.48 1.48 0 01-.91-2.65c.46-.37 1-.79 1.6-1.18L99 47.78a24.33 24.33 0 005.32-4.27 3.08 3.08 0 00.8-2.74 3.6 3.6 0 00-2.24-2.35c-4.15-1.75-9 1.51-13.35 4.39-1.31.87-2.55 1.7-3.69 2.34a1.48 1.48 0 01-1.46-2.58c1.09-.61 2.27-1.4 3.5-2.22 4.69-3.13 10.53-7 16.16-4.66a6.52 6.52 0 014 4.4 6 6 0 01-1.44 5.34 26.53 26.53 0 01-5.93 4.82L99 51.34c-.51.35-1 .74-1.46 1.07a1.48 1.48 0 01-.91.32M98.45 64.72a1.33 1.33 0 01-.4 0 1.47 1.47 0 01-1-1.82l1.79-6.49 7.91-.14a1.49 1.49 0 010 3l-5.69.09-1.21 4.36a1.47 1.47 0 01-1.42 1.08M113.21 57.69a1.48 1.48 0 01-1.48-1.45l-.15-5.78L117 49a1.48 1.48 0 01.77 2.86l-3.15.85.09 3.45a1.49 1.49 0 01-1.45 1.52zM126.47 49.84a10 10 0 01-7.77-3.55 16.34 16.34 0 01-3.38-12.68c.75-5.12 5-10.81 10.51-11.07 2.1-.1 4.88.14 6.2 1.84a1.48 1.48 0 01-2.34 1.82c-.31-.41-1.59-.8-3.72-.7-3.84.18-7.15 4.64-7.72 8.54a13.28 13.28 0 002.68 10.3 7.26 7.26 0 005.64 2.54 9.12 9.12 0 006.47-2.6c1.55-1.7 2.19-4.61.51-6.35a4.31 4.31 0 00-4.63-.74 1.48 1.48 0 01-1-2.8 7.27 7.27 0 017.72 1.48c2.93 3 2.07 7.66-.45 10.41a12 12 0 01-8.61 3.56z" class="cls-3"></path><path d="M128.21 42.11a1.48 1.48 0 01-1.49-1.44l-.08-3.34-2-.44a1.49 1.49 0 01-1.13-1.77A1.5 1.5 0 01125.3 34l4.24.95.15 5.65a1.49 1.49 0 01-1.45 1.52zM129 30a1.45 1.45 0 01-.94-.34 1.49 1.49 0 01-.2-2.09l5.14-6.11a1.48 1.48 0 112.28 1.89l-5.08 6.12a1.47 1.47 0 01-1.2.53M144.82 41.42a1.48 1.48 0 01-1.47-1.35l-1.62-17.76a1.48 1.48 0 011.34-1.61 1.46 1.46 0 011.61 1.3l1.62 17.77a1.49 1.49 0 01-1.3 1.65h-.14" class="cls-3"></path><path d="M143.28 23.5l-6.43-3.5a1.48 1.48 0 011.41-2.61l4.64 2.51 4.19-3.6a1.48 1.48 0 011.91 2.27zM150.36 46.73a1.48 1.48 0 01-.92-2.65 27 27 0 004.78-5.69c2.07-3 3.65-7.83 2.47-10.78a4.3 4.3 0 00-3.41-2.6c-2.84-.62-4.13.54-6.56 3l-1 1a1.48 1.48 0 01-2.07-2.12l.94-.94c2.34-2.37 4.75-4.81 9.29-3.83a7.22 7.22 0 015.55 4.41c1.64 4.13-.3 9.92-2.79 13.55a29.82 29.82 0 01-5.38 6.34 1.53 1.53 0 01-.92.32M93.65 168.9c0 4.34-3.38 8.24-7.84 7.85a11.81 11.81 0 01-5.5-1.47l-.63.89a12.51 12.51 0 0010.37 5.5 12.77 12.77 0 000-25.53 12.51 12.51 0 00-10.37 5.5l.63.89a11.81 11.81 0 015.5-1.47c4.46-.39 7.84 3.51 7.84 7.84M257.18 161.19l7.72-5.65-1.03 9.5 8.75 3.86-8.75 3.86 1.03 9.51-7.72-5.65-7.71 5.65 1.03-9.51-8.75-3.86 8.75-3.86-1.03-9.5 7.71 5.65zM161.01 117.49h24.72v13.29h-24.72zM139.35 126.07h18.22v4.71h-18.22zM189.17 126.07h18.22v4.71h-18.22zM115.38 216.83h15.23v13.13h-15.23zM133.98 216.83h20.56v13.13h-20.56zM115.38 233.33h39.17v13.13h-39.17zM192.42 249.83h20.17v13.13h-20.17zM210.47 172.59h4.25v7.87h16.63v-7.87h4.26v-5.26h-25.14v5.26zM133.98 249.83h20.56v13.13h-20.56zM141.77 134.35h63.18v13.11h-63.18zM192.42 233.33h38.93v13.13h-38.93zM214.73 183.83v7.91h-15.71v-7.91h-23.97v13.13h56.3V183.83h-16.62zM175.05 150.83h29.91v13.13h-29.91zM192.42 216.83h20.17v13.13h-20.17zM141.77 150.83h29.91v13.13h-29.91zM215.97 249.83v13.13h20.9l-5.5-13.13h-15.4zM147.72 167.33V180.46h51.3V167.33h-51.3zM130.61 249.83h-15.24l-5.5 13.13H130.61v-13.13zM115.38 200.33v13.13h39.17v-4.29h37.87v4.29h38.93v-13.13H115.38zM132.01 180.46v-7.87h4.43v-5.26h-25.15v5.26h4.09v7.87h16.63zM215.97 216.83h15.39v13.13h-15.39zM171.68 196.96v-13.13h-23.96v7.91h-15.71v-7.91h-16.63V196.96h56.3zM174.87 81.13v-6.54h2.62v-3.25h-2.62v-3.29h-3.12v3.29h-2.64v3.25h2.64v6.55l-27.8 33.06h14.53l13.27-32.15 1.62.67 1.62-.67 13.26 32.15h14.43l-27.81-33.07z" class="cls-3"></path><path d="M162.13 114.2h22.48l-11.24-27.25-11.24 27.25zM126.5 83.86a2.85 2.85 0 10-4.5 2.36V164h3.21V86.22a2.85 2.85 0 001.25-2.36M98.45 139l20.41-13.52v-36.1s-13.35 1.08-20.41 13.52 0 36.12 0 36.12M225.89 83.86a2.85 2.85 0 10-4.46 2.36V164h3.22V86.22a2.86 2.86 0 001.24-2.36M248.24 139l-20.42-13.5V89.38s13.36 1.08 20.42 13.52 0 36.12 0 36.12M163.69 242.83a2.85 2.85 0 112.85-2.85 2.84 2.84 0 01-2.85 2.85m25.36-20.61v-9.68h-31.13v55.52h31.13v-10.32h-10.94v-4.35h10.94v-26.82h-10.94v-4.35z" class="cls-3"></path></g></svg> 